<?xml version="1.0" encoding="iso-8859-1"?>
<!-- Generator: Adobe Illustrator 19.0.0, SVG Export Plug-In . SVG Version: 6.00 Build 0)  -->
<svg version="1.1" id="Layer_1" xmlns="http://www.w3.org/2000/svg" xmlns:xlink="http://www.w3.org/1999/xlink" x="0px" y="0px"
	 viewBox="0 0 512 512" style="enable-background:new 0 0 512 512;" xml:space="preserve">
<path style="fill:#707487;" d="M198.545,0h-79.296c-7.883,0-14.81,5.226-16.975,12.804L88.276,61.793h141.241l-13.996-48.989
	C213.355,5.226,206.428,0,198.545,0z"/>
<path style="fill:#65687A;" d="M163.386,0h-44.138c-7.883,0-14.81,5.225-16.975,12.804L88.276,61.793h44.138l13.997-48.989
	C148.576,5.225,155.503,0,163.386,0z"/>
<path style="fill:#7A6666;" d="M485.517,79.448H282.483v17.655h8.828c4.875,0,8.828,3.953,8.828,8.828v17.655
	c0,4.875-3.953,8.828-8.828,8.828h-8.828v291.31h8.828c4.875,0,8.828,3.953,8.828,8.828v17.655c0,4.875-3.953,8.828-8.828,8.828
	h-8.828v17.655h158.897c4.875,0,8.828-3.953,8.828-8.828v-44.138c0-4.875,3.953-8.828,8.828-8.828h26.483
	c4.875,0,8.828-3.953,8.828-8.828V88.276C494.345,83.401,490.392,79.448,485.517,79.448z M344.276,450.207
	c0,4.875-3.953,8.828-8.828,8.828h-8.828c-4.875,0-8.828-3.953-8.828-8.828v-17.655c0-4.875,3.953-8.828,8.828-8.828h8.828
	c4.875,0,8.828,3.953,8.828,8.828V450.207z M344.276,123.586c0,4.875-3.953,8.828-8.828,8.828h-8.828
	c-4.875,0-8.828-3.953-8.828-8.828v-17.655c0-4.875,3.953-8.828,8.828-8.828h8.828c4.875,0,8.828,3.953,8.828,8.828V123.586z
	 M388.414,450.207c0,4.875-3.953,8.828-8.828,8.828h-8.828c-4.875,0-8.828-3.953-8.828-8.828v-17.655
	c0-4.875,3.953-8.828,8.828-8.828h8.828c4.875,0,8.828,3.953,8.828,8.828V450.207z M388.414,123.586
	c0,4.875-3.953,8.828-8.828,8.828h-8.828c-4.875,0-8.828-3.953-8.828-8.828v-17.655c0-4.875,3.953-8.828,8.828-8.828h8.828
	c4.875,0,8.828,3.953,8.828,8.828V123.586z M432.552,450.207c0,4.875-3.953,8.828-8.828,8.828h-8.828
	c-4.875,0-8.828-3.953-8.828-8.828v-17.655c0-4.875,3.953-8.828,8.828-8.828h8.828c4.875,0,8.828,3.953,8.828,8.828V450.207z
	 M432.552,123.586c0,4.875-3.953,8.828-8.828,8.828h-8.828c-4.875,0-8.828-3.953-8.828-8.828v-17.655
	c0-4.875,3.953-8.828,8.828-8.828h8.828c4.875,0,8.828,3.953,8.828,8.828V123.586z M476.69,123.586c0,4.875-3.953,8.828-8.828,8.828
	h-8.828c-4.875,0-8.828-3.953-8.828-8.828v-17.655c0-4.875,3.953-8.828,8.828-8.828h8.828c4.875,0,8.828,3.953,8.828,8.828V123.586z
	"/>
<rect x="35.31" y="70.621" style="fill:#876E6E;" width="247.172" height="414.897"/>
<rect x="35.31" y="70.621" style="fill:#7A6666;" width="79.448" height="414.897"/>
<g>
	<path style="fill:#5B5D6E;" d="M291.31,476.69H26.483c-4.875,0-8.828,3.953-8.828,8.828v17.655c0,4.875,3.953,8.828,8.828,8.828
		H291.31c4.875,0,8.828-3.953,8.828-8.828v-17.655C300.138,480.642,296.185,476.69,291.31,476.69z"/>
	<path style="fill:#5B5D6E;" d="M291.31,44.138H26.483c-4.875,0-8.828,3.953-8.828,8.828v17.655c0,4.875,3.953,8.828,8.828,8.828
		H291.31c4.875,0,8.828-3.953,8.828-8.828V52.966C300.138,48.09,296.185,44.138,291.31,44.138z"/>
</g>
<g>
	<path style="fill:#5F4B50;" d="M71.772,132.414h-9.978c-4.875,0-8.828-3.953-8.828-8.828v-17.655c0-4.875,3.953-8.828,8.828-8.828
		h9.978c4.875,0,8.828,3.953,8.828,8.828v17.655C80.599,128.461,76.648,132.414,71.772,132.414z"/>
	<path style="fill:#5F4B50;" d="M117.83,132.414h-9.978c-4.875,0-8.828-3.953-8.828-8.828v-17.655c0-4.875,3.953-8.828,8.828-8.828
		h9.978c4.875,0,8.828,3.953,8.828,8.828v17.655C126.657,128.461,122.705,132.414,117.83,132.414z"/>
	<path style="fill:#5F4B50;" d="M163.886,132.414h-9.978c-4.875,0-8.828-3.953-8.828-8.828v-17.655c0-4.875,3.953-8.828,8.828-8.828
		h9.978c4.875,0,8.828,3.953,8.828,8.828v17.655C172.714,128.461,168.761,132.414,163.886,132.414z"/>
	<path style="fill:#5F4B50;" d="M209.943,132.414h-9.978c-4.875,0-8.828-3.953-8.828-8.828v-17.655c0-4.875,3.953-8.828,8.828-8.828
		h9.978c4.875,0,8.828,3.953,8.828,8.828v17.655C218.771,128.461,214.818,132.414,209.943,132.414z"/>
	<path style="fill:#5F4B50;" d="M256,132.414h-9.978c-4.875,0-8.828-3.953-8.828-8.828v-17.655c0-4.875,3.953-8.828,8.828-8.828H256
		c4.875,0,8.828,3.953,8.828,8.828v17.655C264.828,128.461,260.875,132.414,256,132.414z"/>
	<path style="fill:#5F4B50;" d="M71.772,459.034h-9.978c-4.875,0-8.828-3.953-8.828-8.828v-17.655c0-4.875,3.953-8.828,8.828-8.828
		h9.978c4.875,0,8.828,3.953,8.828,8.828v17.655C80.599,455.082,76.648,459.034,71.772,459.034z"/>
	<path style="fill:#5F4B50;" d="M117.83,459.034h-9.978c-4.875,0-8.828-3.953-8.828-8.828v-17.655c0-4.875,3.953-8.828,8.828-8.828
		h9.978c4.875,0,8.828,3.953,8.828,8.828v17.655C126.657,455.082,122.705,459.034,117.83,459.034z"/>
	<path style="fill:#5F4B50;" d="M163.886,459.034h-9.978c-4.875,0-8.828-3.953-8.828-8.828v-17.655c0-4.875,3.953-8.828,8.828-8.828
		h9.978c4.875,0,8.828,3.953,8.828,8.828v17.655C172.714,455.082,168.761,459.034,163.886,459.034z"/>
	<path style="fill:#5F4B50;" d="M209.943,459.034h-9.978c-4.875,0-8.828-3.953-8.828-8.828v-17.655c0-4.875,3.953-8.828,8.828-8.828
		h9.978c4.875,0,8.828,3.953,8.828,8.828v17.655C218.771,455.082,214.818,459.034,209.943,459.034z"/>
	<path style="fill:#5F4B50;" d="M256,459.034h-9.978c-4.875,0-8.828-3.953-8.828-8.828v-17.655c0-4.875,3.953-8.828,8.828-8.828H256
		c4.875,0,8.828,3.953,8.828,8.828v17.655C264.828,455.082,260.875,459.034,256,459.034z"/>
</g>
<g>
	<path style="fill:#65687A;" d="M291.31,476.69h-97.103c-4.875,0-8.828,3.953-8.828,8.828v17.655c0,4.875,3.953,8.828,8.828,8.828
		h97.103c4.875,0,8.828-3.953,8.828-8.828v-17.655C300.138,480.642,296.185,476.69,291.31,476.69z"/>
	<path style="fill:#65687A;" d="M291.31,44.138h-97.103c-4.875,0-8.828,3.953-8.828,8.828v17.655c0,4.875,3.953,8.828,8.828,8.828
		h97.103c4.875,0,8.828-3.953,8.828-8.828V52.966C300.138,48.09,296.185,44.138,291.31,44.138z"/>
</g>
<g>
	<path style="fill:#6E5A5F;" d="M291.31,459.034h-8.828v17.655h17.655v-26.483C300.138,455.082,296.185,459.034,291.31,459.034z"/>
	<path style="fill:#6E5A5F;" d="M291.31,132.414h-8.828v291.31h8.828c4.875,0,8.828,3.953,8.828,8.828V123.586
		C300.138,128.461,296.185,132.414,291.31,132.414z"/>
	<path style="fill:#6E5A5F;" d="M282.483,79.448v17.655h8.828c4.875,0,8.828,3.953,8.828,8.828V79.448H282.483z"/>
</g>
<g>
</g>
<g>
</g>
<g>
</g>
<g>
</g>
<g>
</g>
<g>
</g>
<g>
</g>
<g>
</g>
<g>
</g>
<g>
</g>
<g>
</g>
<g>
</g>
<g>
</g>
<g>
</g>
<g>
</g>
</svg>
